<?xml version="1.0" standalone="no"?>
<!DOCTYPE svg PUBLIC "-//W3C//DTD SVG 20010904//EN"
 "http://www.w3.org/TR/2001/REC-SVG-20010904/DTD/svg10.dtd">
<svg version="1.0" xmlns="http://www.w3.org/2000/svg"
 width="396.000000pt" height="280.000000pt" viewBox="0 0 396.000000 280.000000"
 preserveAspectRatio="xMidYMid meet">

<g transform="translate(0.000000,280.000000) scale(0.100000,-0.100000)"
fill="#f5f5f5" stroke="none">
<path d="M780 2721 c-74 -43 -141 -88 -148 -100 -14 -20 -8 -34 86 -197 l101
-176 -96 -441 c-63 -289 -102 -449 -113 -462 -19 -22 -40 -97 -40 -141 0 -19
-55 -95 -211 -290 l-210 -263 -72 -3 -71 -3 188 -124 187 -124 55 6 c46 5 64
1 120 -24 36 -17 76 -29 87 -27 14 2 95 92 230 257 242 294 238 285 140 342
l-63 36 170 209 c93 115 173 210 177 211 5 2 90 -140 191 -315 100 -175 188
-324 194 -330 9 -9 106 -12 370 -12 l358 0 0 -24 0 -25 -222 -3 c-210 -3 -226
-4 -270 -26 -71 -36 -131 -93 -169 -164 -32 -59 -34 -69 -34 -158 0 -87 3
-100 32 -156 36 -68 99 -130 171 -166 l47 -23 795 0 795 0 47 23 c72 36 135
98 171 166 29 56 32 69 32 156 0 89 -2 99 -34 158 -38 71 -98 128 -169 164
-44 22 -60 23 -269 26 l-223 3 0 25 0 24 334 0 c291 0 337 2 350 16 14 13 16
66 16 420 l0 404 59 0 c62 0 91 15 91 48 0 9 -11 82 -25 162 -14 80 -25 148
-25 152 0 4 -7 14 -16 22 -12 13 -38 16 -120 16 l-104 0 0 29 c0 29 -22 61
-41 61 -5 0 -9 58 -9 134 0 164 -1 166 -100 166 -99 0 -100 -2 -100 -166 l0
-134 -59 0 c-68 0 -91 -15 -91 -61 l0 -29 -232 0 -231 0 -860 300 c-473 165
-861 301 -862 303 -1 1 -23 40 -50 87 -59 104 -72 120 -99 120 -12 0 -82 -36
-156 -79z m1254 -517 l600 -209 -428 -5 c-365 -4 -428 -7 -436 -20 -13 -21
-13 -27 15 -190 14 -80 25 -148 25 -152 0 -23 36 -38 91 -38 l59 0 0 -221 0
-220 -22 3 c-18 2 -58 64 -195 302 l-173 299 40 47 c64 77 62 82 -102 205
l-143 107 -98 167 c-54 91 -107 183 -117 203 l-20 38 152 -54 c84 -29 423
-147 752 -262z m1536 1 l0 -125 -50 0 -50 0 0 125 0 125 50 0 50 0 0 -125z
m-2591 -232 c61 -105 112 -196 113 -201 2 -6 -93 -147 -211 -315 -146 -209
-218 -304 -228 -300 -12 5 -12 8 0 22 20 23 40 116 33 153 -4 21 22 159 79
422 87 399 93 422 99 415 2 -2 54 -90 115 -196z m611 -106 c0 -5 -10 -22 -23
-37 l-24 -28 -51 89 c-29 48 -52 91 -52 94 0 3 34 -20 75 -52 41 -31 75 -61
75 -66z m-386 -286 c54 -95 63 -117 53 -131 -34 -46 -350 -430 -354 -430 -19
0 -183 104 -180 114 13 33 402 575 408 568 4 -4 37 -58 73 -121z m2436 -11
c19 -19 20 -33 20 -325 0 -292 -1 -306 -20 -325 -20 -20 -33 -20 -755 -20
-722 0 -735 0 -755 20 -19 19 -20 33 -20 325 0 292 1 306 20 325 20 20 33 20
755 20 722 0 735 0 755 -20z m-3035 -570 c14 -16 17 -26 9 -45 -5 -14 -72 -88
-148 -165 -137 -137 -140 -140 -183 -140 l-44 0 102 128 c208 259 221 269 264
222z m2910 -461 c86 -24 156 -133 140 -218 -14 -75 -73 -141 -142 -160 -52
-15 -1454 -15 -1506 0 -43 11 -101 59 -122 98 -38 75 -25 160 33 223 66 69 36
67 837 68 498 0 732 -4 760 -11z"/>
<path d="M2822 1496 c-70 -76 -68 -100 25 -299 57 -122 65 -163 43 -221 -6
-16 -9 -31 -7 -33 8 -7 95 89 108 118 16 39 4 77 -69 234 -52 109 -57 126 -55
183 0 34 0 62 -2 62 -1 0 -21 -20 -43 -44z"/>
<path d="M2658 1459 c-9 -5 -26 -25 -38 -45 -29 -45 -24 -69 41 -207 49 -103
51 -109 40 -152 -6 -24 -11 -47 -11 -51 0 -13 60 49 81 83 19 30 19 33 3 80
-9 26 -32 80 -52 118 -22 44 -37 91 -41 127 -5 49 -8 55 -23 47z"/>
<path d="M3028 1443 c-58 -63 -56 -83 21 -244 42 -90 48 -119 31 -163 -15 -39
4 -31 50 21 52 59 51 70 -20 223 -44 93 -52 118 -47 151 6 46 0 48 -35 12z"/>
<path d="M1989 421 c-63 -64 -20 -171 69 -171 43 0 87 27 97 60 6 20 18 20
605 20 587 0 599 0 605 -20 10 -33 54 -60 97 -60 89 0 132 107 69 171 -23 23
-38 29 -72 29 -35 0 -47 -6 -75 -35 l-33 -35 -591 0 -591 0 -33 35 c-28 29
-40 35 -75 35 -34 0 -49 -6 -72 -29z"/>
</g>
</svg>
